<mxfile host="app.diagrams.net" modified="2020-12-17T14:52:15.379Z" agent="5.0 (Windows NT 10.0; Win64; x64) AppleWebKit/537.36 (KHTML, like Gecko) Chrome/87.0.4280.88 Safari/537.36 Edg/87.0.664.60" etag="b-Qpstp53gi7bHSoqaYE" version="14.0.4" type="github" pages="2">
  <diagram id="fdbAlBpdabrkuO3k_GDF" name="Page-1">
    <mxGraphModel dx="1422" dy="914" grid="1" gridSize="10" guides="1" tooltips="1" connect="1" arrows="1" fold="1" page="1" pageScale="1" pageWidth="1169" pageHeight="827" math="0" shadow="0">
      <root>
        <mxCell id="0" />
        <mxCell id="1" parent="0" />
        <mxCell id="dsvHwpVwbn5-0Ro2IpYD-1" value="Miasto" style="whiteSpace=wrap;html=1;align=center;" parent="1" vertex="1">
          <mxGeometry x="210" y="250" width="100" height="40" as="geometry" />
        </mxCell>
        <mxCell id="dsvHwpVwbn5-0Ro2IpYD-5" value="" style="rounded=0;orthogonalLoop=1;jettySize=auto;html=1;endArrow=none;endFill=0;entryX=0;entryY=0;entryDx=0;entryDy=0;" parent="1" source="dsvHwpVwbn5-0Ro2IpYD-2" target="V_PXY_WuCmiGxluCI5Us-5" edge="1">
          <mxGeometry relative="1" as="geometry" />
        </mxCell>
        <mxCell id="dsvHwpVwbn5-0Ro2IpYD-2" value="nazwa" style="ellipse;whiteSpace=wrap;html=1;align=center;" parent="1" vertex="1">
          <mxGeometry x="50" y="434" width="100" height="40" as="geometry" />
        </mxCell>
        <mxCell id="dsvHwpVwbn5-0Ro2IpYD-4" value="" style="rounded=0;orthogonalLoop=1;jettySize=auto;html=1;endArrow=none;endFill=0;entryX=1;entryY=0.5;entryDx=0;entryDy=0;" parent="1" source="dsvHwpVwbn5-0Ro2IpYD-3" target="V_PXY_WuCmiGxluCI5Us-5" edge="1">
          <mxGeometry relative="1" as="geometry" />
        </mxCell>
        <mxCell id="dsvHwpVwbn5-0Ro2IpYD-3" value="Ilość portów" style="ellipse;whiteSpace=wrap;html=1;align=center;" parent="1" vertex="1">
          <mxGeometry x="70" y="570" width="100" height="40" as="geometry" />
        </mxCell>
        <mxCell id="dsvHwpVwbn5-0Ro2IpYD-6" value="Port" style="whiteSpace=wrap;html=1;align=center;" parent="1" vertex="1">
          <mxGeometry x="600" y="160" width="100" height="40" as="geometry" />
        </mxCell>
        <mxCell id="dsvHwpVwbn5-0Ro2IpYD-8" value="" style="edgeStyle=none;rounded=0;orthogonalLoop=1;jettySize=auto;html=1;endArrow=none;endFill=0;" parent="1" source="dsvHwpVwbn5-0Ro2IpYD-40" target="dsvHwpVwbn5-0Ro2IpYD-6" edge="1">
          <mxGeometry relative="1" as="geometry" />
        </mxCell>
        <mxCell id="dsvHwpVwbn5-0Ro2IpYD-9" value="" style="edgeStyle=none;rounded=0;orthogonalLoop=1;jettySize=auto;html=1;endArrow=none;endFill=0;" parent="1" source="dsvHwpVwbn5-0Ro2IpYD-42" target="dsvHwpVwbn5-0Ro2IpYD-1" edge="1">
          <mxGeometry relative="1" as="geometry" />
        </mxCell>
        <mxCell id="dsvHwpVwbn5-0Ro2IpYD-7" value="ma" style="shape=rhombus;perimeter=rhombusPerimeter;whiteSpace=wrap;html=1;align=center;" parent="1" vertex="1">
          <mxGeometry x="420" y="200" width="120" height="60" as="geometry" />
        </mxCell>
        <mxCell id="dsvHwpVwbn5-0Ro2IpYD-13" value="" style="edgeStyle=none;rounded=0;orthogonalLoop=1;jettySize=auto;html=1;endArrow=none;endFill=0;entryX=0.75;entryY=0;entryDx=0;entryDy=0;" parent="1" source="dsvHwpVwbn5-0Ro2IpYD-12" target="dsvHwpVwbn5-0Ro2IpYD-6" edge="1">
          <mxGeometry relative="1" as="geometry" />
        </mxCell>
        <mxCell id="dsvHwpVwbn5-0Ro2IpYD-12" value="Adres" style="ellipse;whiteSpace=wrap;html=1;align=center;" parent="1" vertex="1">
          <mxGeometry x="720" y="30" width="100" height="40" as="geometry" />
        </mxCell>
        <mxCell id="dsvHwpVwbn5-0Ro2IpYD-19" value="" style="edgeStyle=none;rounded=0;orthogonalLoop=1;jettySize=auto;html=1;endArrow=none;endFill=0;" parent="1" source="dsvHwpVwbn5-0Ro2IpYD-18" target="dsvHwpVwbn5-0Ro2IpYD-1" edge="1">
          <mxGeometry relative="1" as="geometry" />
        </mxCell>
        <mxCell id="dsvHwpVwbn5-0Ro2IpYD-18" value="id_miasta" style="ellipse;whiteSpace=wrap;html=1;align=center;" parent="1" vertex="1">
          <mxGeometry x="170" y="100" width="100" height="40" as="geometry" />
        </mxCell>
        <mxCell id="dsvHwpVwbn5-0Ro2IpYD-21" value="" style="edgeStyle=none;rounded=0;orthogonalLoop=1;jettySize=auto;html=1;endArrow=none;endFill=0;" parent="1" source="dsvHwpVwbn5-0Ro2IpYD-20" target="dsvHwpVwbn5-0Ro2IpYD-1" edge="1">
          <mxGeometry relative="1" as="geometry" />
        </mxCell>
        <mxCell id="dsvHwpVwbn5-0Ro2IpYD-20" value="Nazwa miasta" style="ellipse;whiteSpace=wrap;html=1;align=center;" parent="1" vertex="1">
          <mxGeometry x="210" y="320" width="100" height="40" as="geometry" />
        </mxCell>
        <mxCell id="dsvHwpVwbn5-0Ro2IpYD-25" value="" style="edgeStyle=none;rounded=0;orthogonalLoop=1;jettySize=auto;html=1;endArrow=none;endFill=0;exitX=0;exitY=0.5;exitDx=0;exitDy=0;entryX=1;entryY=0.5;entryDx=0;entryDy=0;" parent="1" source="dsvHwpVwbn5-0Ro2IpYD-53" target="V_PXY_WuCmiGxluCI5Us-5" edge="1">
          <mxGeometry relative="1" as="geometry">
            <mxPoint x="810.2964154122815" y="187.82546817428738" as="sourcePoint" />
          </mxGeometry>
        </mxCell>
        <mxCell id="dsvHwpVwbn5-0Ro2IpYD-47" value="" style="edgeStyle=none;rounded=0;orthogonalLoop=1;jettySize=auto;html=1;endArrow=none;endFill=0;" parent="1" source="dsvHwpVwbn5-0Ro2IpYD-55" target="dsvHwpVwbn5-0Ro2IpYD-35" edge="1">
          <mxGeometry relative="1" as="geometry" />
        </mxCell>
        <mxCell id="dsvHwpVwbn5-0Ro2IpYD-26" value="Statystyka" style="whiteSpace=wrap;html=1;align=center;" parent="1" vertex="1">
          <mxGeometry x="570" y="424" width="100" height="40" as="geometry" />
        </mxCell>
        <mxCell id="3uEqCci8YD5AcvhM_53z-5" value="" style="edgeStyle=none;rounded=0;orthogonalLoop=1;jettySize=auto;html=1;endArrow=none;endFill=0;" edge="1" parent="1" source="dsvHwpVwbn5-0Ro2IpYD-27" target="3uEqCci8YD5AcvhM_53z-3">
          <mxGeometry relative="1" as="geometry" />
        </mxCell>
        <mxCell id="dsvHwpVwbn5-0Ro2IpYD-27" value="id_kategoria" style="ellipse;whiteSpace=wrap;html=1;align=center;" parent="1" vertex="1">
          <mxGeometry x="450" y="760" width="100" height="40" as="geometry" />
        </mxCell>
        <mxCell id="3uEqCci8YD5AcvhM_53z-4" value="" style="rounded=0;orthogonalLoop=1;jettySize=auto;html=1;endArrow=none;endFill=0;" edge="1" parent="1" source="dsvHwpVwbn5-0Ro2IpYD-30" target="3uEqCci8YD5AcvhM_53z-3">
          <mxGeometry relative="1" as="geometry" />
        </mxCell>
        <mxCell id="dsvHwpVwbn5-0Ro2IpYD-30" value="nazwa" style="ellipse;whiteSpace=wrap;html=1;align=center;" parent="1" vertex="1">
          <mxGeometry x="360" y="730" width="100" height="40" as="geometry" />
        </mxCell>
        <mxCell id="dsvHwpVwbn5-0Ro2IpYD-35" value="ma" style="shape=rhombus;perimeter=rhombusPerimeter;whiteSpace=wrap;html=1;align=center;" parent="1" vertex="1">
          <mxGeometry x="370" y="464" width="120" height="60" as="geometry" />
        </mxCell>
        <mxCell id="dsvHwpVwbn5-0Ro2IpYD-38" style="edgeStyle=none;rounded=0;orthogonalLoop=1;jettySize=auto;html=1;exitX=0.5;exitY=0;exitDx=0;exitDy=0;endArrow=none;endFill=0;" parent="1" edge="1">
          <mxGeometry relative="1" as="geometry">
            <mxPoint x="520" y="300" as="sourcePoint" />
            <mxPoint x="520" y="300" as="targetPoint" />
          </mxGeometry>
        </mxCell>
        <mxCell id="dsvHwpVwbn5-0Ro2IpYD-40" value="N" style="text;html=1;strokeColor=none;fillColor=none;align=center;verticalAlign=middle;whiteSpace=wrap;rounded=0;" parent="1" vertex="1">
          <mxGeometry x="540" y="200" width="40" height="20" as="geometry" />
        </mxCell>
        <mxCell id="dsvHwpVwbn5-0Ro2IpYD-41" value="" style="edgeStyle=none;rounded=0;orthogonalLoop=1;jettySize=auto;html=1;endArrow=none;endFill=0;" parent="1" source="dsvHwpVwbn5-0Ro2IpYD-7" target="dsvHwpVwbn5-0Ro2IpYD-40" edge="1">
          <mxGeometry relative="1" as="geometry">
            <mxPoint x="517.7777777777778" y="218.8888888888889" as="sourcePoint" />
            <mxPoint x="600" y="194.70588235294122" as="targetPoint" />
          </mxGeometry>
        </mxCell>
        <mxCell id="dsvHwpVwbn5-0Ro2IpYD-42" value="1" style="text;html=1;strokeColor=none;fillColor=none;align=center;verticalAlign=middle;whiteSpace=wrap;rounded=0;" parent="1" vertex="1">
          <mxGeometry x="350" y="240" width="40" height="20" as="geometry" />
        </mxCell>
        <mxCell id="dsvHwpVwbn5-0Ro2IpYD-46" value="" style="edgeStyle=none;rounded=0;orthogonalLoop=1;jettySize=auto;html=1;endArrow=none;endFill=0;" parent="1" source="dsvHwpVwbn5-0Ro2IpYD-7" target="dsvHwpVwbn5-0Ro2IpYD-42" edge="1">
          <mxGeometry relative="1" as="geometry">
            <mxPoint x="439.3548387096773" y="239.67741935483878" as="sourcePoint" />
            <mxPoint x="320" y="268.0952380952381" as="targetPoint" />
          </mxGeometry>
        </mxCell>
        <mxCell id="dsvHwpVwbn5-0Ro2IpYD-50" value="" style="edgeStyle=none;rounded=0;orthogonalLoop=1;jettySize=auto;html=1;endArrow=none;endFill=0;" parent="1" source="dsvHwpVwbn5-0Ro2IpYD-49" target="dsvHwpVwbn5-0Ro2IpYD-6" edge="1">
          <mxGeometry relative="1" as="geometry" />
        </mxCell>
        <mxCell id="dsvHwpVwbn5-0Ro2IpYD-49" value="id_portu" style="ellipse;whiteSpace=wrap;html=1;align=center;" parent="1" vertex="1">
          <mxGeometry x="560" y="40" width="100" height="40" as="geometry" />
        </mxCell>
        <mxCell id="dsvHwpVwbn5-0Ro2IpYD-52" value="" style="edgeStyle=none;rounded=0;orthogonalLoop=1;jettySize=auto;html=1;endArrow=none;endFill=0;" parent="1" source="dsvHwpVwbn5-0Ro2IpYD-51" target="dsvHwpVwbn5-0Ro2IpYD-26" edge="1">
          <mxGeometry relative="1" as="geometry" />
        </mxCell>
        <mxCell id="dsvHwpVwbn5-0Ro2IpYD-51" value="id_statystyka" style="ellipse;whiteSpace=wrap;html=1;align=center;" parent="1" vertex="1">
          <mxGeometry x="470" y="330" width="100" height="40" as="geometry" />
        </mxCell>
        <mxCell id="dsvHwpVwbn5-0Ro2IpYD-53" value="1" style="text;html=1;strokeColor=none;fillColor=none;align=center;verticalAlign=middle;whiteSpace=wrap;rounded=0;" parent="1" vertex="1">
          <mxGeometry x="310" y="490" width="40" height="20" as="geometry" />
        </mxCell>
        <mxCell id="dsvHwpVwbn5-0Ro2IpYD-54" value="" style="edgeStyle=none;rounded=0;orthogonalLoop=1;jettySize=auto;html=1;endArrow=none;endFill=0;exitX=0;exitY=0.5;exitDx=0;exitDy=0;" parent="1" source="dsvHwpVwbn5-0Ro2IpYD-35" target="dsvHwpVwbn5-0Ro2IpYD-53" edge="1">
          <mxGeometry relative="1" as="geometry">
            <mxPoint x="680" y="270" as="sourcePoint" />
            <mxPoint x="656.6666666666665" y="200" as="targetPoint" />
          </mxGeometry>
        </mxCell>
        <mxCell id="dsvHwpVwbn5-0Ro2IpYD-55" value="N" style="text;html=1;strokeColor=none;fillColor=none;align=center;verticalAlign=middle;whiteSpace=wrap;rounded=0;" parent="1" vertex="1">
          <mxGeometry x="520" y="464" width="40" height="20" as="geometry" />
        </mxCell>
        <mxCell id="dsvHwpVwbn5-0Ro2IpYD-57" value="" style="edgeStyle=none;rounded=0;orthogonalLoop=1;jettySize=auto;html=1;endArrow=none;endFill=0;" parent="1" source="dsvHwpVwbn5-0Ro2IpYD-26" target="dsvHwpVwbn5-0Ro2IpYD-55" edge="1">
          <mxGeometry relative="1" as="geometry">
            <mxPoint x="688" y="380" as="sourcePoint" />
            <mxPoint x="682.8571428571427" y="328.57142857142867" as="targetPoint" />
          </mxGeometry>
        </mxCell>
        <mxCell id="V_PXY_WuCmiGxluCI5Us-2" value="" style="rounded=0;orthogonalLoop=1;jettySize=auto;html=1;endArrow=none;endFill=0;" parent="1" source="V_PXY_WuCmiGxluCI5Us-9" target="dsvHwpVwbn5-0Ro2IpYD-1" edge="1">
          <mxGeometry relative="1" as="geometry" />
        </mxCell>
        <mxCell id="V_PXY_WuCmiGxluCI5Us-1" value="znajduje się" style="shape=rhombus;perimeter=rhombusPerimeter;whiteSpace=wrap;html=1;align=center;" parent="1" vertex="1">
          <mxGeometry x="30" y="250" width="120" height="60" as="geometry" />
        </mxCell>
        <mxCell id="V_PXY_WuCmiGxluCI5Us-4" value="" style="rounded=0;orthogonalLoop=1;jettySize=auto;html=1;endArrow=none;endFill=0;entryX=0;entryY=1;entryDx=0;entryDy=0;" parent="1" source="V_PXY_WuCmiGxluCI5Us-3" target="V_PXY_WuCmiGxluCI5Us-5" edge="1">
          <mxGeometry relative="1" as="geometry" />
        </mxCell>
        <mxCell id="V_PXY_WuCmiGxluCI5Us-3" value="id_państwo" style="ellipse;whiteSpace=wrap;html=1;align=center;" parent="1" vertex="1">
          <mxGeometry x="50" y="500" width="100" height="40" as="geometry" />
        </mxCell>
        <mxCell id="V_PXY_WuCmiGxluCI5Us-6" value="" style="edgeStyle=none;rounded=0;orthogonalLoop=1;jettySize=auto;html=1;endArrow=none;endFill=0;" parent="1" source="V_PXY_WuCmiGxluCI5Us-7" target="V_PXY_WuCmiGxluCI5Us-1" edge="1">
          <mxGeometry relative="1" as="geometry" />
        </mxCell>
        <mxCell id="V_PXY_WuCmiGxluCI5Us-5" value="Państwo" style="whiteSpace=wrap;html=1;align=center;" parent="1" vertex="1">
          <mxGeometry x="170" y="484" width="100" height="40" as="geometry" />
        </mxCell>
        <mxCell id="V_PXY_WuCmiGxluCI5Us-7" value="1" style="text;html=1;strokeColor=none;fillColor=none;align=center;verticalAlign=middle;whiteSpace=wrap;rounded=0;" parent="1" vertex="1">
          <mxGeometry x="70" y="350" width="40" height="20" as="geometry" />
        </mxCell>
        <mxCell id="V_PXY_WuCmiGxluCI5Us-8" value="" style="edgeStyle=none;rounded=0;orthogonalLoop=1;jettySize=auto;html=1;endArrow=none;endFill=0;" parent="1" source="V_PXY_WuCmiGxluCI5Us-5" target="V_PXY_WuCmiGxluCI5Us-7" edge="1">
          <mxGeometry relative="1" as="geometry">
            <mxPoint x="91.42857142857133" y="400" as="sourcePoint" />
            <mxPoint x="97.9310344827586" y="308.9655172413793" as="targetPoint" />
          </mxGeometry>
        </mxCell>
        <mxCell id="V_PXY_WuCmiGxluCI5Us-9" value="N" style="text;html=1;strokeColor=none;fillColor=none;align=center;verticalAlign=middle;whiteSpace=wrap;rounded=0;" parent="1" vertex="1">
          <mxGeometry x="160" y="270" width="40" height="20" as="geometry" />
        </mxCell>
        <mxCell id="V_PXY_WuCmiGxluCI5Us-10" value="" style="rounded=0;orthogonalLoop=1;jettySize=auto;html=1;endArrow=none;endFill=0;" parent="1" source="V_PXY_WuCmiGxluCI5Us-1" target="V_PXY_WuCmiGxluCI5Us-9" edge="1">
          <mxGeometry relative="1" as="geometry">
            <mxPoint x="153.33333333333326" y="276.66666666666674" as="sourcePoint" />
            <mxPoint x="210" y="273.125" as="targetPoint" />
          </mxGeometry>
        </mxCell>
        <mxCell id="V_PXY_WuCmiGxluCI5Us-11" style="edgeStyle=none;rounded=0;orthogonalLoop=1;jettySize=auto;html=1;exitX=0.5;exitY=0;exitDx=0;exitDy=0;endArrow=none;endFill=0;" parent="1" source="V_PXY_WuCmiGxluCI5Us-7" target="V_PXY_WuCmiGxluCI5Us-7" edge="1">
          <mxGeometry relative="1" as="geometry" />
        </mxCell>
        <mxCell id="RAU1tRaKDqggCzedS62n-3" value="" style="rounded=0;orthogonalLoop=1;jettySize=auto;html=1;entryX=1;entryY=1;entryDx=0;entryDy=0;endArrow=none;endFill=0;" parent="1" source="RAU1tRaKDqggCzedS62n-9" target="dsvHwpVwbn5-0Ro2IpYD-6" edge="1">
          <mxGeometry relative="1" as="geometry" />
        </mxCell>
        <mxCell id="RAU1tRaKDqggCzedS62n-2" value="ma" style="shape=rhombus;perimeter=rhombusPerimeter;whiteSpace=wrap;html=1;align=center;" parent="1" vertex="1">
          <mxGeometry x="760" y="240" width="120" height="60" as="geometry" />
        </mxCell>
        <mxCell id="RAU1tRaKDqggCzedS62n-8" value="" style="edgeStyle=none;rounded=0;orthogonalLoop=1;jettySize=auto;html=1;endArrow=none;endFill=0;" parent="1" source="RAU1tRaKDqggCzedS62n-11" target="RAU1tRaKDqggCzedS62n-2" edge="1">
          <mxGeometry relative="1" as="geometry" />
        </mxCell>
        <mxCell id="RAU1tRaKDqggCzedS62n-4" value="typ_portu" style="whiteSpace=wrap;html=1;align=center;" parent="1" vertex="1">
          <mxGeometry x="910" y="370" width="100" height="40" as="geometry" />
        </mxCell>
        <mxCell id="RAU1tRaKDqggCzedS62n-7" value="" style="edgeStyle=none;rounded=0;orthogonalLoop=1;jettySize=auto;html=1;endArrow=none;endFill=0;" parent="1" source="RAU1tRaKDqggCzedS62n-6" target="RAU1tRaKDqggCzedS62n-4" edge="1">
          <mxGeometry relative="1" as="geometry" />
        </mxCell>
        <mxCell id="RAU1tRaKDqggCzedS62n-6" value="id_typ_portu" style="ellipse;whiteSpace=wrap;html=1;align=center;" parent="1" vertex="1">
          <mxGeometry x="1000" y="270" width="100" height="40" as="geometry" />
        </mxCell>
        <mxCell id="RAU1tRaKDqggCzedS62n-9" value="1" style="text;html=1;strokeColor=none;fillColor=none;align=center;verticalAlign=middle;whiteSpace=wrap;rounded=0;" parent="1" vertex="1">
          <mxGeometry x="720" y="210" width="40" height="20" as="geometry" />
        </mxCell>
        <mxCell id="RAU1tRaKDqggCzedS62n-10" value="" style="rounded=0;orthogonalLoop=1;jettySize=auto;html=1;entryX=1;entryY=1;entryDx=0;entryDy=0;endArrow=none;endFill=0;" parent="1" source="RAU1tRaKDqggCzedS62n-2" target="RAU1tRaKDqggCzedS62n-9" edge="1">
          <mxGeometry relative="1" as="geometry">
            <mxPoint x="792.3076923076924" y="253.8461538461538" as="sourcePoint" />
            <mxPoint x="700" y="200" as="targetPoint" />
          </mxGeometry>
        </mxCell>
        <mxCell id="RAU1tRaKDqggCzedS62n-11" value="N" style="text;html=1;strokeColor=none;fillColor=none;align=center;verticalAlign=middle;whiteSpace=wrap;rounded=0;" parent="1" vertex="1">
          <mxGeometry x="860" y="310" width="40" height="20" as="geometry" />
        </mxCell>
        <mxCell id="RAU1tRaKDqggCzedS62n-12" value="" style="edgeStyle=none;rounded=0;orthogonalLoop=1;jettySize=auto;html=1;endArrow=none;endFill=0;" parent="1" source="RAU1tRaKDqggCzedS62n-4" target="RAU1tRaKDqggCzedS62n-11" edge="1">
          <mxGeometry relative="1" as="geometry">
            <mxPoint x="936.6666666666665" y="370" as="sourcePoint" />
            <mxPoint x="842.1052631578946" y="288.9473684210527" as="targetPoint" />
          </mxGeometry>
        </mxCell>
        <mxCell id="RAU1tRaKDqggCzedS62n-14" value="" style="edgeStyle=none;rounded=0;orthogonalLoop=1;jettySize=auto;html=1;endArrow=none;endFill=0;" parent="1" source="RAU1tRaKDqggCzedS62n-13" target="RAU1tRaKDqggCzedS62n-4" edge="1">
          <mxGeometry relative="1" as="geometry" />
        </mxCell>
        <mxCell id="RAU1tRaKDqggCzedS62n-13" value="nazwa" style="ellipse;whiteSpace=wrap;html=1;align=center;" parent="1" vertex="1">
          <mxGeometry x="990" y="454" width="100" height="40" as="geometry" />
        </mxCell>
        <mxCell id="A7_PTe2dTBcWUXV_PqhH-2" value="" style="rounded=0;orthogonalLoop=1;jettySize=auto;html=1;endArrow=none;endFill=0;" parent="1" source="A7_PTe2dTBcWUXV_PqhH-1" target="dsvHwpVwbn5-0Ro2IpYD-6" edge="1">
          <mxGeometry relative="1" as="geometry" />
        </mxCell>
        <mxCell id="A7_PTe2dTBcWUXV_PqhH-1" value="nazwa_portu" style="ellipse;whiteSpace=wrap;html=1;align=center;" parent="1" vertex="1">
          <mxGeometry x="484.5" y="100" width="100" height="40" as="geometry" />
        </mxCell>
        <mxCell id="3uEqCci8YD5AcvhM_53z-8" value="" style="edgeStyle=none;rounded=0;orthogonalLoop=1;jettySize=auto;html=1;endArrow=none;endFill=0;" edge="1" parent="1" source="M2wDK2nyAQuWvCnZn-lo-18" target="3uEqCci8YD5AcvhM_53z-3">
          <mxGeometry relative="1" as="geometry" />
        </mxCell>
        <mxCell id="3uEqCci8YD5AcvhM_53z-9" value="" style="edgeStyle=none;rounded=0;orthogonalLoop=1;jettySize=auto;html=1;endArrow=none;endFill=0;" edge="1" parent="1" source="M2wDK2nyAQuWvCnZn-lo-16" target="dsvHwpVwbn5-0Ro2IpYD-26">
          <mxGeometry relative="1" as="geometry" />
        </mxCell>
        <mxCell id="3uEqCci8YD5AcvhM_53z-2" value="ma" style="shape=rhombus;perimeter=rhombusPerimeter;whiteSpace=wrap;html=1;align=center;" vertex="1" parent="1">
          <mxGeometry x="490" y="580" width="120" height="60" as="geometry" />
        </mxCell>
        <mxCell id="3uEqCci8YD5AcvhM_53z-3" value="rodzaj" style="whiteSpace=wrap;html=1;align=center;" vertex="1" parent="1">
          <mxGeometry x="450" y="680" width="100" height="40" as="geometry" />
        </mxCell>
        <mxCell id="3uEqCci8YD5AcvhM_53z-11" value="" style="edgeStyle=none;rounded=0;orthogonalLoop=1;jettySize=auto;html=1;endArrow=none;endFill=0;" edge="1" parent="1" source="3uEqCci8YD5AcvhM_53z-10" target="dsvHwpVwbn5-0Ro2IpYD-26">
          <mxGeometry relative="1" as="geometry" />
        </mxCell>
        <mxCell id="3uEqCci8YD5AcvhM_53z-10" value="wartość" style="ellipse;whiteSpace=wrap;html=1;align=center;" vertex="1" parent="1">
          <mxGeometry x="585" y="310" width="100" height="40" as="geometry" />
        </mxCell>
        <mxCell id="M2wDK2nyAQuWvCnZn-lo-1" value="Rok" style="whiteSpace=wrap;html=1;align=center;" vertex="1" parent="1">
          <mxGeometry x="760" y="600" width="100" height="40" as="geometry" />
        </mxCell>
        <mxCell id="M2wDK2nyAQuWvCnZn-lo-3" value="" style="edgeStyle=none;rounded=0;orthogonalLoop=1;jettySize=auto;html=1;endArrow=none;endFill=0;" edge="1" parent="1" source="M2wDK2nyAQuWvCnZn-lo-2" target="M2wDK2nyAQuWvCnZn-lo-1">
          <mxGeometry relative="1" as="geometry" />
        </mxCell>
        <mxCell id="M2wDK2nyAQuWvCnZn-lo-2" value="id_rok" style="ellipse;whiteSpace=wrap;html=1;align=center;" vertex="1" parent="1">
          <mxGeometry x="740" y="700" width="100" height="40" as="geometry" />
        </mxCell>
        <mxCell id="M2wDK2nyAQuWvCnZn-lo-5" value="" style="edgeStyle=none;rounded=0;orthogonalLoop=1;jettySize=auto;html=1;endArrow=none;endFill=0;" edge="1" parent="1" source="M2wDK2nyAQuWvCnZn-lo-13" target="dsvHwpVwbn5-0Ro2IpYD-26">
          <mxGeometry relative="1" as="geometry" />
        </mxCell>
        <mxCell id="M2wDK2nyAQuWvCnZn-lo-8" value="" style="edgeStyle=none;rounded=0;orthogonalLoop=1;jettySize=auto;html=1;endArrow=none;endFill=0;" edge="1" parent="1" source="M2wDK2nyAQuWvCnZn-lo-11" target="M2wDK2nyAQuWvCnZn-lo-1">
          <mxGeometry relative="1" as="geometry" />
        </mxCell>
        <mxCell id="M2wDK2nyAQuWvCnZn-lo-4" value="ma" style="shape=rhombus;perimeter=rhombusPerimeter;whiteSpace=wrap;html=1;align=center;" vertex="1" parent="1">
          <mxGeometry x="710" y="474" width="120" height="60" as="geometry" />
        </mxCell>
        <mxCell id="M2wDK2nyAQuWvCnZn-lo-10" value="" style="edgeStyle=none;rounded=0;orthogonalLoop=1;jettySize=auto;html=1;endArrow=none;endFill=0;" edge="1" parent="1" source="M2wDK2nyAQuWvCnZn-lo-9" target="M2wDK2nyAQuWvCnZn-lo-1">
          <mxGeometry relative="1" as="geometry" />
        </mxCell>
        <mxCell id="M2wDK2nyAQuWvCnZn-lo-9" value="rok" style="ellipse;whiteSpace=wrap;html=1;align=center;" vertex="1" parent="1">
          <mxGeometry x="890" y="680" width="100" height="40" as="geometry" />
        </mxCell>
        <mxCell id="M2wDK2nyAQuWvCnZn-lo-11" value="N" style="text;html=1;strokeColor=none;fillColor=none;align=center;verticalAlign=middle;whiteSpace=wrap;rounded=0;" vertex="1" parent="1">
          <mxGeometry x="770" y="560" width="40" height="20" as="geometry" />
        </mxCell>
        <mxCell id="M2wDK2nyAQuWvCnZn-lo-12" value="" style="edgeStyle=none;rounded=0;orthogonalLoop=1;jettySize=auto;html=1;endArrow=none;endFill=0;" edge="1" parent="1" source="M2wDK2nyAQuWvCnZn-lo-4" target="M2wDK2nyAQuWvCnZn-lo-11">
          <mxGeometry relative="1" as="geometry">
            <mxPoint x="812.0689655172414" y="468.9655172413793" as="sourcePoint" />
            <mxPoint x="818.5714285714284" y="560" as="targetPoint" />
          </mxGeometry>
        </mxCell>
        <mxCell id="M2wDK2nyAQuWvCnZn-lo-13" value="N" style="text;html=1;strokeColor=none;fillColor=none;align=center;verticalAlign=middle;whiteSpace=wrap;rounded=0;" vertex="1" parent="1">
          <mxGeometry x="700" y="454" width="40" height="20" as="geometry" />
        </mxCell>
        <mxCell id="M2wDK2nyAQuWvCnZn-lo-14" value="" style="edgeStyle=none;rounded=0;orthogonalLoop=1;jettySize=auto;html=1;endArrow=none;endFill=0;" edge="1" parent="1" source="M2wDK2nyAQuWvCnZn-lo-4" target="M2wDK2nyAQuWvCnZn-lo-13">
          <mxGeometry relative="1" as="geometry">
            <mxPoint x="754.1860465116279" y="437.90697674418607" as="sourcePoint" />
            <mxPoint x="700" y="435.875" as="targetPoint" />
          </mxGeometry>
        </mxCell>
        <mxCell id="M2wDK2nyAQuWvCnZn-lo-15" style="edgeStyle=none;rounded=0;orthogonalLoop=1;jettySize=auto;html=1;exitX=0.5;exitY=1;exitDx=0;exitDy=0;endArrow=none;endFill=0;" edge="1" parent="1" source="M2wDK2nyAQuWvCnZn-lo-13" target="M2wDK2nyAQuWvCnZn-lo-13">
          <mxGeometry relative="1" as="geometry" />
        </mxCell>
        <mxCell id="M2wDK2nyAQuWvCnZn-lo-16" value="N" style="text;html=1;strokeColor=none;fillColor=none;align=center;verticalAlign=middle;whiteSpace=wrap;rounded=0;" vertex="1" parent="1">
          <mxGeometry x="570" y="520" width="40" height="20" as="geometry" />
        </mxCell>
        <mxCell id="M2wDK2nyAQuWvCnZn-lo-17" value="" style="edgeStyle=none;rounded=0;orthogonalLoop=1;jettySize=auto;html=1;endArrow=none;endFill=0;" edge="1" parent="1" source="3uEqCci8YD5AcvhM_53z-2" target="M2wDK2nyAQuWvCnZn-lo-16">
          <mxGeometry relative="1" as="geometry">
            <mxPoint x="646.3824884792625" y="510.69124423963126" as="sourcePoint" />
            <mxPoint x="649.0566037735848" y="454" as="targetPoint" />
          </mxGeometry>
        </mxCell>
        <mxCell id="M2wDK2nyAQuWvCnZn-lo-18" value="1" style="text;html=1;strokeColor=none;fillColor=none;align=center;verticalAlign=middle;whiteSpace=wrap;rounded=0;" vertex="1" parent="1">
          <mxGeometry x="500" y="640" width="40" height="20" as="geometry" />
        </mxCell>
        <mxCell id="M2wDK2nyAQuWvCnZn-lo-19" value="" style="edgeStyle=none;rounded=0;orthogonalLoop=1;jettySize=auto;html=1;endArrow=none;endFill=0;" edge="1" parent="1" source="3uEqCci8YD5AcvhM_53z-2" target="M2wDK2nyAQuWvCnZn-lo-18">
          <mxGeometry relative="1" as="geometry">
            <mxPoint x="620.7446808510638" y="557.872340425532" as="sourcePoint" />
            <mxPoint x="577.1428571428571" y="590" as="targetPoint" />
          </mxGeometry>
        </mxCell>
        <mxCell id="N9YmxJ9VT-yNSday3GX1-2" value="" style="edgeStyle=none;rounded=1;jumpStyle=arc;orthogonalLoop=1;jettySize=auto;html=1;startArrow=none;startFill=0;endArrow=none;endFill=0;" edge="1" parent="1" source="N9YmxJ9VT-yNSday3GX1-1" target="dsvHwpVwbn5-0Ro2IpYD-6">
          <mxGeometry relative="1" as="geometry" />
        </mxCell>
        <mxCell id="N9YmxJ9VT-yNSday3GX1-1" value="numer" style="ellipse;whiteSpace=wrap;html=1;align=center;" vertex="1" parent="1">
          <mxGeometry x="760" y="80" width="100" height="40" as="geometry" />
        </mxCell>
      </root>
    </mxGraphModel>
  </diagram>
  <diagram id="Sltui8JSw1h2iG8DlyV2" name="Page-2">
    <mxGraphModel dx="1422" dy="914" grid="1" gridSize="10" guides="1" tooltips="1" connect="1" arrows="1" fold="1" page="1" pageScale="1" pageWidth="827" pageHeight="1169" math="0" shadow="0">
      <root>
        <mxCell id="3W3n_nv946zFMJwHKfL3-0" />
        <mxCell id="3W3n_nv946zFMJwHKfL3-1" parent="3W3n_nv946zFMJwHKfL3-0" />
        <mxCell id="3W3n_nv946zFMJwHKfL3-2" value="" style="fontSize=12;html=1;endArrow=ERoneToMany;startArrow=ERmandOne;entryX=0;entryY=0.5;entryDx=0;entryDy=0;exitX=1;exitY=0.5;exitDx=0;exitDy=0;edgeStyle=entityRelationEdgeStyle;" parent="3W3n_nv946zFMJwHKfL3-1" source="3W3n_nv946zFMJwHKfL3-16" target="3W3n_nv946zFMJwHKfL3-30" edge="1">
          <mxGeometry width="100" height="100" relative="1" as="geometry">
            <mxPoint x="180" y="120" as="sourcePoint" />
            <mxPoint x="200" y="160" as="targetPoint" />
          </mxGeometry>
        </mxCell>
        <mxCell id="3W3n_nv946zFMJwHKfL3-3" value="Miasto" style="shape=table;startSize=30;container=1;collapsible=1;childLayout=tableLayout;fixedRows=1;rowLines=0;fontStyle=1;align=center;resizeLast=1;" parent="3W3n_nv946zFMJwHKfL3-1" vertex="1">
          <mxGeometry x="40" y="270" width="180" height="180" as="geometry" />
        </mxCell>
        <mxCell id="3W3n_nv946zFMJwHKfL3-4" value="" style="shape=partialRectangle;collapsible=0;dropTarget=0;pointerEvents=0;fillColor=none;top=0;left=0;bottom=1;right=0;points=[[0,0.5],[1,0.5]];portConstraint=eastwest;" parent="3W3n_nv946zFMJwHKfL3-3" vertex="1">
          <mxGeometry y="30" width="180" height="30" as="geometry" />
        </mxCell>
        <mxCell id="3W3n_nv946zFMJwHKfL3-5" value="PK" style="shape=partialRectangle;connectable=0;fillColor=none;top=0;left=0;bottom=0;right=0;fontStyle=1;overflow=hidden;" parent="3W3n_nv946zFMJwHKfL3-4" vertex="1">
          <mxGeometry width="30" height="30" as="geometry" />
        </mxCell>
        <mxCell id="3W3n_nv946zFMJwHKfL3-6" value="id_miasto" style="shape=partialRectangle;connectable=0;fillColor=none;top=0;left=0;bottom=0;right=0;align=left;spacingLeft=6;fontStyle=5;overflow=hidden;" parent="3W3n_nv946zFMJwHKfL3-4" vertex="1">
          <mxGeometry x="30" width="150" height="30" as="geometry" />
        </mxCell>
        <mxCell id="3W3n_nv946zFMJwHKfL3-7" value="" style="shape=partialRectangle;collapsible=0;dropTarget=0;pointerEvents=0;fillColor=none;top=0;left=0;bottom=0;right=0;points=[[0,0.5],[1,0.5]];portConstraint=eastwest;" parent="3W3n_nv946zFMJwHKfL3-3" vertex="1">
          <mxGeometry y="60" width="180" height="30" as="geometry" />
        </mxCell>
        <mxCell id="3W3n_nv946zFMJwHKfL3-8" value="" style="shape=partialRectangle;connectable=0;fillColor=none;top=0;left=0;bottom=0;right=0;editable=1;overflow=hidden;" parent="3W3n_nv946zFMJwHKfL3-7" vertex="1">
          <mxGeometry width="30" height="30" as="geometry" />
        </mxCell>
        <mxCell id="3W3n_nv946zFMJwHKfL3-9" value="Nazwa_miasta" style="shape=partialRectangle;connectable=0;fillColor=none;top=0;left=0;bottom=0;right=0;align=left;spacingLeft=6;overflow=hidden;" parent="3W3n_nv946zFMJwHKfL3-7" vertex="1">
          <mxGeometry x="30" width="150" height="30" as="geometry" />
        </mxCell>
        <mxCell id="3W3n_nv946zFMJwHKfL3-10" value="" style="shape=partialRectangle;collapsible=0;dropTarget=0;pointerEvents=0;fillColor=none;top=0;left=0;bottom=0;right=0;points=[[0,0.5],[1,0.5]];portConstraint=eastwest;" parent="3W3n_nv946zFMJwHKfL3-3" vertex="1">
          <mxGeometry y="90" width="180" height="40" as="geometry" />
        </mxCell>
        <mxCell id="3W3n_nv946zFMJwHKfL3-11" value="" style="shape=partialRectangle;connectable=0;fillColor=none;top=0;left=0;bottom=0;right=0;editable=1;overflow=hidden;" parent="3W3n_nv946zFMJwHKfL3-10" vertex="1">
          <mxGeometry width="30" height="40" as="geometry" />
        </mxCell>
        <mxCell id="3W3n_nv946zFMJwHKfL3-12" value="ilość_portów" style="shape=partialRectangle;connectable=0;fillColor=none;top=0;left=0;bottom=0;right=0;align=left;spacingLeft=6;overflow=hidden;" parent="3W3n_nv946zFMJwHKfL3-10" vertex="1">
          <mxGeometry x="30" width="150" height="40" as="geometry" />
        </mxCell>
        <mxCell id="3W3n_nv946zFMJwHKfL3-16" style="shape=partialRectangle;collapsible=0;dropTarget=0;pointerEvents=0;fillColor=none;top=0;left=0;bottom=0;right=0;points=[[0,0.5],[1,0.5]];portConstraint=eastwest;" parent="3W3n_nv946zFMJwHKfL3-3" vertex="1">
          <mxGeometry y="130" width="180" height="20" as="geometry" />
        </mxCell>
        <mxCell id="3W3n_nv946zFMJwHKfL3-17" value="Fk" style="shape=partialRectangle;connectable=0;fillColor=none;top=0;left=0;bottom=0;right=0;editable=1;overflow=hidden;" parent="3W3n_nv946zFMJwHKfL3-16" vertex="1">
          <mxGeometry width="30" height="20" as="geometry" />
        </mxCell>
        <mxCell id="3W3n_nv946zFMJwHKfL3-18" value="id_port" style="shape=partialRectangle;connectable=0;fillColor=none;top=0;left=0;bottom=0;right=0;align=left;spacingLeft=6;overflow=hidden;" parent="3W3n_nv946zFMJwHKfL3-16" vertex="1">
          <mxGeometry x="30" width="150" height="20" as="geometry" />
        </mxCell>
        <mxCell id="3W3n_nv946zFMJwHKfL3-13" value="" style="shape=partialRectangle;collapsible=0;dropTarget=0;pointerEvents=0;fillColor=none;top=0;left=0;bottom=0;right=0;points=[[0,0.5],[1,0.5]];portConstraint=eastwest;" parent="3W3n_nv946zFMJwHKfL3-3" vertex="1">
          <mxGeometry y="150" width="180" height="20" as="geometry" />
        </mxCell>
        <mxCell id="3W3n_nv946zFMJwHKfL3-14" value="FK" style="shape=partialRectangle;connectable=0;fillColor=none;top=0;left=0;bottom=0;right=0;editable=1;overflow=hidden;" parent="3W3n_nv946zFMJwHKfL3-13" vertex="1">
          <mxGeometry width="30" height="20" as="geometry" />
        </mxCell>
        <mxCell id="3W3n_nv946zFMJwHKfL3-15" value="id_państwa" style="shape=partialRectangle;connectable=0;fillColor=none;top=0;left=0;bottom=0;right=0;align=left;spacingLeft=6;overflow=hidden;" parent="3W3n_nv946zFMJwHKfL3-13" vertex="1">
          <mxGeometry x="30" width="150" height="20" as="geometry" />
        </mxCell>
        <mxCell id="3W3n_nv946zFMJwHKfL3-19" value="Państwo" style="shape=table;startSize=30;container=1;collapsible=1;childLayout=tableLayout;fixedRows=1;rowLines=0;fontStyle=1;align=center;resizeLast=1;" parent="3W3n_nv946zFMJwHKfL3-1" vertex="1">
          <mxGeometry x="270" y="530" width="180" height="130" as="geometry" />
        </mxCell>
        <mxCell id="3W3n_nv946zFMJwHKfL3-20" value="" style="shape=partialRectangle;collapsible=0;dropTarget=0;pointerEvents=0;fillColor=none;top=0;left=0;bottom=1;right=0;points=[[0,0.5],[1,0.5]];portConstraint=eastwest;" parent="3W3n_nv946zFMJwHKfL3-19" vertex="1">
          <mxGeometry y="30" width="180" height="30" as="geometry" />
        </mxCell>
        <mxCell id="3W3n_nv946zFMJwHKfL3-21" value="PK" style="shape=partialRectangle;connectable=0;fillColor=none;top=0;left=0;bottom=0;right=0;fontStyle=1;overflow=hidden;" parent="3W3n_nv946zFMJwHKfL3-20" vertex="1">
          <mxGeometry width="30" height="30" as="geometry" />
        </mxCell>
        <mxCell id="3W3n_nv946zFMJwHKfL3-22" value="id_panstwo" style="shape=partialRectangle;connectable=0;fillColor=none;top=0;left=0;bottom=0;right=0;align=left;spacingLeft=6;fontStyle=5;overflow=hidden;" parent="3W3n_nv946zFMJwHKfL3-20" vertex="1">
          <mxGeometry x="30" width="150" height="30" as="geometry" />
        </mxCell>
        <mxCell id="3W3n_nv946zFMJwHKfL3-23" value="" style="shape=partialRectangle;collapsible=0;dropTarget=0;pointerEvents=0;fillColor=none;top=0;left=0;bottom=0;right=0;points=[[0,0.5],[1,0.5]];portConstraint=eastwest;" parent="3W3n_nv946zFMJwHKfL3-19" vertex="1">
          <mxGeometry y="60" width="180" height="30" as="geometry" />
        </mxCell>
        <mxCell id="3W3n_nv946zFMJwHKfL3-24" value="" style="shape=partialRectangle;connectable=0;fillColor=none;top=0;left=0;bottom=0;right=0;editable=1;overflow=hidden;" parent="3W3n_nv946zFMJwHKfL3-23" vertex="1">
          <mxGeometry width="30" height="30" as="geometry" />
        </mxCell>
        <mxCell id="3W3n_nv946zFMJwHKfL3-25" value="nazwa" style="shape=partialRectangle;connectable=0;fillColor=none;top=0;left=0;bottom=0;right=0;align=left;spacingLeft=6;overflow=hidden;" parent="3W3n_nv946zFMJwHKfL3-23" vertex="1">
          <mxGeometry x="30" width="150" height="30" as="geometry" />
        </mxCell>
        <mxCell id="3W3n_nv946zFMJwHKfL3-26" style="shape=partialRectangle;collapsible=0;dropTarget=0;pointerEvents=0;fillColor=none;top=0;left=0;bottom=0;right=0;points=[[0,0.5],[1,0.5]];portConstraint=eastwest;" parent="3W3n_nv946zFMJwHKfL3-19" vertex="1">
          <mxGeometry y="90" width="180" height="30" as="geometry" />
        </mxCell>
        <mxCell id="3W3n_nv946zFMJwHKfL3-27" style="shape=partialRectangle;connectable=0;fillColor=none;top=0;left=0;bottom=0;right=0;editable=1;overflow=hidden;" parent="3W3n_nv946zFMJwHKfL3-26" vertex="1">
          <mxGeometry width="30" height="30" as="geometry" />
        </mxCell>
        <mxCell id="3W3n_nv946zFMJwHKfL3-28" value="ilosc_portów" style="shape=partialRectangle;connectable=0;fillColor=none;top=0;left=0;bottom=0;right=0;align=left;spacingLeft=6;overflow=hidden;" parent="3W3n_nv946zFMJwHKfL3-26" vertex="1">
          <mxGeometry x="30" width="150" height="30" as="geometry" />
        </mxCell>
        <mxCell id="3W3n_nv946zFMJwHKfL3-29" value="Port" style="shape=table;startSize=30;container=1;collapsible=1;childLayout=tableLayout;fixedRows=1;rowLines=0;fontStyle=1;align=center;resizeLast=1;" parent="3W3n_nv946zFMJwHKfL3-1" vertex="1">
          <mxGeometry x="234" y="20" width="180" height="210" as="geometry" />
        </mxCell>
        <mxCell id="3W3n_nv946zFMJwHKfL3-30" value="" style="shape=partialRectangle;collapsible=0;dropTarget=0;pointerEvents=0;fillColor=none;top=0;left=0;bottom=1;right=0;points=[[0,0.5],[1,0.5]];portConstraint=eastwest;" parent="3W3n_nv946zFMJwHKfL3-29" vertex="1">
          <mxGeometry y="30" width="180" height="30" as="geometry" />
        </mxCell>
        <mxCell id="3W3n_nv946zFMJwHKfL3-31" value="PK" style="shape=partialRectangle;connectable=0;fillColor=none;top=0;left=0;bottom=0;right=0;fontStyle=1;overflow=hidden;" parent="3W3n_nv946zFMJwHKfL3-30" vertex="1">
          <mxGeometry width="30" height="30" as="geometry" />
        </mxCell>
        <mxCell id="3W3n_nv946zFMJwHKfL3-32" value="id_port" style="shape=partialRectangle;connectable=0;fillColor=none;top=0;left=0;bottom=0;right=0;align=left;spacingLeft=6;fontStyle=5;overflow=hidden;" parent="3W3n_nv946zFMJwHKfL3-30" vertex="1">
          <mxGeometry x="30" width="150" height="30" as="geometry" />
        </mxCell>
        <mxCell id="3W3n_nv946zFMJwHKfL3-33" value="" style="shape=partialRectangle;collapsible=0;dropTarget=0;pointerEvents=0;fillColor=none;top=0;left=0;bottom=0;right=0;points=[[0,0.5],[1,0.5]];portConstraint=eastwest;" parent="3W3n_nv946zFMJwHKfL3-29" vertex="1">
          <mxGeometry y="60" width="180" height="30" as="geometry" />
        </mxCell>
        <mxCell id="3W3n_nv946zFMJwHKfL3-34" value="" style="shape=partialRectangle;connectable=0;fillColor=none;top=0;left=0;bottom=0;right=0;editable=1;overflow=hidden;" parent="3W3n_nv946zFMJwHKfL3-33" vertex="1">
          <mxGeometry width="30" height="30" as="geometry" />
        </mxCell>
        <mxCell id="3W3n_nv946zFMJwHKfL3-35" value="nazwa" style="shape=partialRectangle;connectable=0;fillColor=none;top=0;left=0;bottom=0;right=0;align=left;spacingLeft=6;overflow=hidden;" parent="3W3n_nv946zFMJwHKfL3-33" vertex="1">
          <mxGeometry x="30" width="150" height="30" as="geometry" />
        </mxCell>
        <mxCell id="3W3n_nv946zFMJwHKfL3-36" value="" style="shape=partialRectangle;collapsible=0;dropTarget=0;pointerEvents=0;fillColor=none;top=0;left=0;bottom=0;right=0;points=[[0,0.5],[1,0.5]];portConstraint=eastwest;" parent="3W3n_nv946zFMJwHKfL3-29" vertex="1">
          <mxGeometry y="90" width="180" height="40" as="geometry" />
        </mxCell>
        <mxCell id="3W3n_nv946zFMJwHKfL3-37" value="" style="shape=partialRectangle;connectable=0;fillColor=none;top=0;left=0;bottom=0;right=0;editable=1;overflow=hidden;" parent="3W3n_nv946zFMJwHKfL3-36" vertex="1">
          <mxGeometry width="30" height="40" as="geometry" />
        </mxCell>
        <mxCell id="3W3n_nv946zFMJwHKfL3-38" value="adres" style="shape=partialRectangle;connectable=0;fillColor=none;top=0;left=0;bottom=0;right=0;align=left;spacingLeft=6;overflow=hidden;" parent="3W3n_nv946zFMJwHKfL3-36" vertex="1">
          <mxGeometry x="30" width="150" height="40" as="geometry" />
        </mxCell>
        <mxCell id="3W3n_nv946zFMJwHKfL3-39" style="shape=partialRectangle;collapsible=0;dropTarget=0;pointerEvents=0;fillColor=none;top=0;left=0;bottom=0;right=0;points=[[0,0.5],[1,0.5]];portConstraint=eastwest;" parent="3W3n_nv946zFMJwHKfL3-29" vertex="1">
          <mxGeometry y="130" width="180" height="30" as="geometry" />
        </mxCell>
        <mxCell id="3W3n_nv946zFMJwHKfL3-40" style="shape=partialRectangle;connectable=0;fillColor=none;top=0;left=0;bottom=0;right=0;editable=1;overflow=hidden;" parent="3W3n_nv946zFMJwHKfL3-39" vertex="1">
          <mxGeometry width="30" height="30" as="geometry" />
        </mxCell>
        <mxCell id="3W3n_nv946zFMJwHKfL3-41" value="nazwa_portu" style="shape=partialRectangle;connectable=0;fillColor=none;top=0;left=0;bottom=0;right=0;align=left;spacingLeft=6;overflow=hidden;" parent="3W3n_nv946zFMJwHKfL3-39" vertex="1">
          <mxGeometry x="30" width="150" height="30" as="geometry" />
        </mxCell>
        <mxCell id="3W3n_nv946zFMJwHKfL3-42" value="" style="shape=partialRectangle;collapsible=0;dropTarget=0;pointerEvents=0;fillColor=none;top=0;left=0;bottom=0;right=0;points=[[0,0.5],[1,0.5]];portConstraint=eastwest;" parent="3W3n_nv946zFMJwHKfL3-29" vertex="1">
          <mxGeometry y="160" width="180" height="30" as="geometry" />
        </mxCell>
        <mxCell id="3W3n_nv946zFMJwHKfL3-43" value="FK" style="shape=partialRectangle;connectable=0;fillColor=none;top=0;left=0;bottom=0;right=0;editable=1;overflow=hidden;" parent="3W3n_nv946zFMJwHKfL3-42" vertex="1">
          <mxGeometry width="30" height="30" as="geometry" />
        </mxCell>
        <mxCell id="3W3n_nv946zFMJwHKfL3-44" value="id_typ_portu" style="shape=partialRectangle;connectable=0;fillColor=none;top=0;left=0;bottom=0;right=0;align=left;spacingLeft=6;overflow=hidden;" parent="3W3n_nv946zFMJwHKfL3-42" vertex="1">
          <mxGeometry x="30" width="150" height="30" as="geometry" />
        </mxCell>
        <mxCell id="3W3n_nv946zFMJwHKfL3-45" value="Statystyka" style="shape=table;startSize=30;container=1;collapsible=1;childLayout=tableLayout;fixedRows=1;rowLines=0;fontStyle=1;align=center;resizeLast=1;" parent="3W3n_nv946zFMJwHKfL3-1" vertex="1">
          <mxGeometry x="530" y="530" width="180" height="150" as="geometry" />
        </mxCell>
        <mxCell id="3W3n_nv946zFMJwHKfL3-46" value="" style="shape=partialRectangle;collapsible=0;dropTarget=0;pointerEvents=0;fillColor=none;top=0;left=0;bottom=1;right=0;points=[[0,0.5],[1,0.5]];portConstraint=eastwest;" parent="3W3n_nv946zFMJwHKfL3-45" vertex="1">
          <mxGeometry y="30" width="180" height="30" as="geometry" />
        </mxCell>
        <mxCell id="3W3n_nv946zFMJwHKfL3-47" value="PK" style="shape=partialRectangle;connectable=0;fillColor=none;top=0;left=0;bottom=0;right=0;fontStyle=1;overflow=hidden;" parent="3W3n_nv946zFMJwHKfL3-46" vertex="1">
          <mxGeometry width="30" height="30" as="geometry" />
        </mxCell>
        <mxCell id="3W3n_nv946zFMJwHKfL3-48" value="id_stats_per_rok" style="shape=partialRectangle;connectable=0;fillColor=none;top=0;left=0;bottom=0;right=0;align=left;spacingLeft=6;fontStyle=5;overflow=hidden;" parent="3W3n_nv946zFMJwHKfL3-46" vertex="1">
          <mxGeometry x="30" width="150" height="30" as="geometry" />
        </mxCell>
        <mxCell id="3W3n_nv946zFMJwHKfL3-49" value="" style="shape=partialRectangle;collapsible=0;dropTarget=0;pointerEvents=0;fillColor=none;top=0;left=0;bottom=0;right=0;points=[[0,0.5],[1,0.5]];portConstraint=eastwest;" parent="3W3n_nv946zFMJwHKfL3-45" vertex="1">
          <mxGeometry y="60" width="180" height="30" as="geometry" />
        </mxCell>
        <mxCell id="3W3n_nv946zFMJwHKfL3-50" value="Fk" style="shape=partialRectangle;connectable=0;fillColor=none;top=0;left=0;bottom=0;right=0;editable=1;overflow=hidden;" parent="3W3n_nv946zFMJwHKfL3-49" vertex="1">
          <mxGeometry width="30" height="30" as="geometry" />
        </mxCell>
        <mxCell id="3W3n_nv946zFMJwHKfL3-51" value="id_statystyka" style="shape=partialRectangle;connectable=0;fillColor=none;top=0;left=0;bottom=0;right=0;align=left;spacingLeft=6;overflow=hidden;" parent="3W3n_nv946zFMJwHKfL3-49" vertex="1">
          <mxGeometry x="30" width="150" height="30" as="geometry" />
        </mxCell>
        <mxCell id="3W3n_nv946zFMJwHKfL3-52" value="" style="shape=partialRectangle;collapsible=0;dropTarget=0;pointerEvents=0;fillColor=none;top=0;left=0;bottom=0;right=0;points=[[0,0.5],[1,0.5]];portConstraint=eastwest;" parent="3W3n_nv946zFMJwHKfL3-45" vertex="1">
          <mxGeometry y="90" width="180" height="20" as="geometry" />
        </mxCell>
        <mxCell id="3W3n_nv946zFMJwHKfL3-53" value="FK" style="shape=partialRectangle;connectable=0;fillColor=none;top=0;left=0;bottom=0;right=0;editable=1;overflow=hidden;" parent="3W3n_nv946zFMJwHKfL3-52" vertex="1">
          <mxGeometry width="30" height="20" as="geometry" />
        </mxCell>
        <mxCell id="3W3n_nv946zFMJwHKfL3-54" value="id_panstwo" style="shape=partialRectangle;connectable=0;fillColor=none;top=0;left=0;bottom=0;right=0;align=left;spacingLeft=6;overflow=hidden;" parent="3W3n_nv946zFMJwHKfL3-52" vertex="1">
          <mxGeometry x="30" width="150" height="20" as="geometry" />
        </mxCell>
        <mxCell id="3W3n_nv946zFMJwHKfL3-55" value="" style="shape=partialRectangle;collapsible=0;dropTarget=0;pointerEvents=0;fillColor=none;top=0;left=0;bottom=0;right=0;points=[[0,0.5],[1,0.5]];portConstraint=eastwest;" parent="3W3n_nv946zFMJwHKfL3-45" vertex="1">
          <mxGeometry y="110" width="180" height="30" as="geometry" />
        </mxCell>
        <mxCell id="3W3n_nv946zFMJwHKfL3-56" value="FK" style="shape=partialRectangle;connectable=0;fillColor=none;top=0;left=0;bottom=0;right=0;editable=1;overflow=hidden;" parent="3W3n_nv946zFMJwHKfL3-55" vertex="1">
          <mxGeometry width="30" height="30" as="geometry" />
        </mxCell>
        <mxCell id="3W3n_nv946zFMJwHKfL3-57" value="id_rok" style="shape=partialRectangle;connectable=0;fillColor=none;top=0;left=0;bottom=0;right=0;align=left;spacingLeft=6;overflow=hidden;" parent="3W3n_nv946zFMJwHKfL3-55" vertex="1">
          <mxGeometry x="30" width="150" height="30" as="geometry" />
        </mxCell>
        <mxCell id="3W3n_nv946zFMJwHKfL3-60" value="Statystyka" style="shape=table;startSize=30;container=1;collapsible=1;childLayout=tableLayout;fixedRows=1;rowLines=0;fontStyle=1;align=center;resizeLast=1;" parent="3W3n_nv946zFMJwHKfL3-1" vertex="1">
          <mxGeometry x="920" y="240" width="180" height="130" as="geometry" />
        </mxCell>
        <mxCell id="3W3n_nv946zFMJwHKfL3-61" value="" style="shape=partialRectangle;collapsible=0;dropTarget=0;pointerEvents=0;fillColor=none;top=0;left=0;bottom=1;right=0;points=[[0,0.5],[1,0.5]];portConstraint=eastwest;" parent="3W3n_nv946zFMJwHKfL3-60" vertex="1">
          <mxGeometry y="30" width="180" height="30" as="geometry" />
        </mxCell>
        <mxCell id="3W3n_nv946zFMJwHKfL3-62" value="PK" style="shape=partialRectangle;connectable=0;fillColor=none;top=0;left=0;bottom=0;right=0;fontStyle=1;overflow=hidden;" parent="3W3n_nv946zFMJwHKfL3-61" vertex="1">
          <mxGeometry width="30" height="30" as="geometry" />
        </mxCell>
        <mxCell id="3W3n_nv946zFMJwHKfL3-63" value="id_statystyka" style="shape=partialRectangle;connectable=0;fillColor=none;top=0;left=0;bottom=0;right=0;align=left;spacingLeft=6;fontStyle=5;overflow=hidden;" parent="3W3n_nv946zFMJwHKfL3-61" vertex="1">
          <mxGeometry x="30" width="150" height="30" as="geometry" />
        </mxCell>
        <mxCell id="l890fs3GRMGRWGxxvy2Y-13" style="shape=partialRectangle;collapsible=0;dropTarget=0;pointerEvents=0;fillColor=none;top=0;left=0;bottom=0;right=0;points=[[0,0.5],[1,0.5]];portConstraint=eastwest;" vertex="1" parent="3W3n_nv946zFMJwHKfL3-60">
          <mxGeometry y="60" width="180" height="30" as="geometry" />
        </mxCell>
        <mxCell id="l890fs3GRMGRWGxxvy2Y-14" style="shape=partialRectangle;connectable=0;fillColor=none;top=0;left=0;bottom=0;right=0;editable=1;overflow=hidden;" vertex="1" parent="l890fs3GRMGRWGxxvy2Y-13">
          <mxGeometry width="30" height="30" as="geometry" />
        </mxCell>
        <mxCell id="l890fs3GRMGRWGxxvy2Y-15" value="wartość" style="shape=partialRectangle;connectable=0;fillColor=none;top=0;left=0;bottom=0;right=0;align=left;spacingLeft=6;overflow=hidden;" vertex="1" parent="l890fs3GRMGRWGxxvy2Y-13">
          <mxGeometry x="30" width="150" height="30" as="geometry" />
        </mxCell>
        <mxCell id="l890fs3GRMGRWGxxvy2Y-16" style="shape=partialRectangle;collapsible=0;dropTarget=0;pointerEvents=0;fillColor=none;top=0;left=0;bottom=0;right=0;points=[[0,0.5],[1,0.5]];portConstraint=eastwest;" vertex="1" parent="3W3n_nv946zFMJwHKfL3-60">
          <mxGeometry y="90" width="180" height="30" as="geometry" />
        </mxCell>
        <mxCell id="l890fs3GRMGRWGxxvy2Y-17" value="FK" style="shape=partialRectangle;connectable=0;fillColor=none;top=0;left=0;bottom=0;right=0;editable=1;overflow=hidden;" vertex="1" parent="l890fs3GRMGRWGxxvy2Y-16">
          <mxGeometry width="30" height="30" as="geometry" />
        </mxCell>
        <mxCell id="l890fs3GRMGRWGxxvy2Y-18" value="id kategoria" style="shape=partialRectangle;connectable=0;fillColor=none;top=0;left=0;bottom=0;right=0;align=left;spacingLeft=6;overflow=hidden;" vertex="1" parent="l890fs3GRMGRWGxxvy2Y-16">
          <mxGeometry x="30" width="150" height="30" as="geometry" />
        </mxCell>
        <mxCell id="3W3n_nv946zFMJwHKfL3-73" value="" style="edgeStyle=entityRelationEdgeStyle;fontSize=12;html=1;endArrow=ERmandOne;startArrow=ERmandOne;exitX=1;exitY=0.5;exitDx=0;exitDy=0;entryX=0;entryY=0.5;entryDx=0;entryDy=0;" parent="3W3n_nv946zFMJwHKfL3-1" source="3W3n_nv946zFMJwHKfL3-49" target="3W3n_nv946zFMJwHKfL3-61" edge="1">
          <mxGeometry width="100" height="100" relative="1" as="geometry">
            <mxPoint x="710" y="430" as="sourcePoint" />
            <mxPoint x="810" y="330" as="targetPoint" />
          </mxGeometry>
        </mxCell>
        <mxCell id="3W3n_nv946zFMJwHKfL3-74" value="Typ Porrtu" style="shape=table;startSize=30;container=1;collapsible=1;childLayout=tableLayout;fixedRows=1;rowLines=0;fontStyle=1;align=center;resizeLast=1;" parent="3W3n_nv946zFMJwHKfL3-1" vertex="1">
          <mxGeometry x="480" y="260" width="180" height="100" as="geometry" />
        </mxCell>
        <mxCell id="3W3n_nv946zFMJwHKfL3-75" value="" style="shape=partialRectangle;collapsible=0;dropTarget=0;pointerEvents=0;fillColor=none;top=0;left=0;bottom=1;right=0;points=[[0,0.5],[1,0.5]];portConstraint=eastwest;" parent="3W3n_nv946zFMJwHKfL3-74" vertex="1">
          <mxGeometry y="30" width="180" height="30" as="geometry" />
        </mxCell>
        <mxCell id="3W3n_nv946zFMJwHKfL3-76" value="PK" style="shape=partialRectangle;connectable=0;fillColor=none;top=0;left=0;bottom=0;right=0;fontStyle=1;overflow=hidden;" parent="3W3n_nv946zFMJwHKfL3-75" vertex="1">
          <mxGeometry width="30" height="30" as="geometry" />
        </mxCell>
        <mxCell id="3W3n_nv946zFMJwHKfL3-77" value="id_typ_portu" style="shape=partialRectangle;connectable=0;fillColor=none;top=0;left=0;bottom=0;right=0;align=left;spacingLeft=6;fontStyle=5;overflow=hidden;" parent="3W3n_nv946zFMJwHKfL3-75" vertex="1">
          <mxGeometry x="30" width="150" height="30" as="geometry" />
        </mxCell>
        <mxCell id="3W3n_nv946zFMJwHKfL3-78" value="" style="shape=partialRectangle;collapsible=0;dropTarget=0;pointerEvents=0;fillColor=none;top=0;left=0;bottom=0;right=0;points=[[0,0.5],[1,0.5]];portConstraint=eastwest;" parent="3W3n_nv946zFMJwHKfL3-74" vertex="1">
          <mxGeometry y="60" width="180" height="30" as="geometry" />
        </mxCell>
        <mxCell id="3W3n_nv946zFMJwHKfL3-79" value="" style="shape=partialRectangle;connectable=0;fillColor=none;top=0;left=0;bottom=0;right=0;editable=1;overflow=hidden;" parent="3W3n_nv946zFMJwHKfL3-78" vertex="1">
          <mxGeometry width="30" height="30" as="geometry" />
        </mxCell>
        <mxCell id="3W3n_nv946zFMJwHKfL3-80" value="nazwa" style="shape=partialRectangle;connectable=0;fillColor=none;top=0;left=0;bottom=0;right=0;align=left;spacingLeft=6;overflow=hidden;" parent="3W3n_nv946zFMJwHKfL3-78" vertex="1">
          <mxGeometry x="30" width="150" height="30" as="geometry" />
        </mxCell>
        <mxCell id="NhVwCb4PzsyVTkSRrteR-0" value="Rok" style="shape=table;startSize=30;container=1;collapsible=1;childLayout=tableLayout;fixedRows=1;rowLines=0;fontStyle=1;align=center;resizeLast=1;" vertex="1" parent="3W3n_nv946zFMJwHKfL3-1">
          <mxGeometry x="750" y="700" width="180" height="100" as="geometry" />
        </mxCell>
        <mxCell id="NhVwCb4PzsyVTkSRrteR-1" value="" style="shape=partialRectangle;collapsible=0;dropTarget=0;pointerEvents=0;fillColor=none;top=0;left=0;bottom=1;right=0;points=[[0,0.5],[1,0.5]];portConstraint=eastwest;" vertex="1" parent="NhVwCb4PzsyVTkSRrteR-0">
          <mxGeometry y="30" width="180" height="30" as="geometry" />
        </mxCell>
        <mxCell id="NhVwCb4PzsyVTkSRrteR-2" value="PK" style="shape=partialRectangle;connectable=0;fillColor=none;top=0;left=0;bottom=0;right=0;fontStyle=1;overflow=hidden;" vertex="1" parent="NhVwCb4PzsyVTkSRrteR-1">
          <mxGeometry width="30" height="30" as="geometry" />
        </mxCell>
        <mxCell id="NhVwCb4PzsyVTkSRrteR-3" value="id_rok" style="shape=partialRectangle;connectable=0;fillColor=none;top=0;left=0;bottom=0;right=0;align=left;spacingLeft=6;fontStyle=5;overflow=hidden;" vertex="1" parent="NhVwCb4PzsyVTkSRrteR-1">
          <mxGeometry x="30" width="150" height="30" as="geometry" />
        </mxCell>
        <mxCell id="NhVwCb4PzsyVTkSRrteR-4" value="" style="shape=partialRectangle;collapsible=0;dropTarget=0;pointerEvents=0;fillColor=none;top=0;left=0;bottom=0;right=0;points=[[0,0.5],[1,0.5]];portConstraint=eastwest;" vertex="1" parent="NhVwCb4PzsyVTkSRrteR-0">
          <mxGeometry y="60" width="180" height="30" as="geometry" />
        </mxCell>
        <mxCell id="NhVwCb4PzsyVTkSRrteR-5" value="" style="shape=partialRectangle;connectable=0;fillColor=none;top=0;left=0;bottom=0;right=0;editable=1;overflow=hidden;" vertex="1" parent="NhVwCb4PzsyVTkSRrteR-4">
          <mxGeometry width="30" height="30" as="geometry" />
        </mxCell>
        <mxCell id="NhVwCb4PzsyVTkSRrteR-6" value="rok" style="shape=partialRectangle;connectable=0;fillColor=none;top=0;left=0;bottom=0;right=0;align=left;spacingLeft=6;overflow=hidden;" vertex="1" parent="NhVwCb4PzsyVTkSRrteR-4">
          <mxGeometry x="30" width="150" height="30" as="geometry" />
        </mxCell>
        <mxCell id="NhVwCb4PzsyVTkSRrteR-13" value="" style="edgeStyle=entityRelationEdgeStyle;fontSize=12;html=1;endArrow=ERmany;startArrow=ERmany;entryX=0;entryY=0.5;entryDx=0;entryDy=0;exitX=1;exitY=0.5;exitDx=0;exitDy=0;" edge="1" parent="3W3n_nv946zFMJwHKfL3-1" source="3W3n_nv946zFMJwHKfL3-55" target="NhVwCb4PzsyVTkSRrteR-1">
          <mxGeometry width="100" height="100" relative="1" as="geometry">
            <mxPoint x="690" y="360" as="sourcePoint" />
            <mxPoint x="790" y="260" as="targetPoint" />
          </mxGeometry>
        </mxCell>
        <mxCell id="aryUxKqYt362KrScVBZf-1" value="" style="edgeStyle=entityRelationEdgeStyle;fontSize=12;html=1;endArrow=ERoneToMany;startArrow=ERzeroToOne;entryX=1;entryY=0.5;entryDx=0;entryDy=0;exitX=0;exitY=0.5;exitDx=0;exitDy=0;" edge="1" parent="3W3n_nv946zFMJwHKfL3-1" source="3W3n_nv946zFMJwHKfL3-75" target="3W3n_nv946zFMJwHKfL3-42">
          <mxGeometry width="100" height="100" relative="1" as="geometry">
            <mxPoint x="590" y="405" as="sourcePoint" />
            <mxPoint x="550" y="260" as="targetPoint" />
          </mxGeometry>
        </mxCell>
        <mxCell id="l890fs3GRMGRWGxxvy2Y-0" value="Rodzaj" style="shape=table;startSize=30;container=1;collapsible=1;childLayout=tableLayout;fixedRows=1;rowLines=0;fontStyle=1;align=center;resizeLast=1;" vertex="1" parent="3W3n_nv946zFMJwHKfL3-1">
          <mxGeometry x="920" y="420" width="180" height="100" as="geometry" />
        </mxCell>
        <mxCell id="l890fs3GRMGRWGxxvy2Y-1" value="" style="shape=partialRectangle;collapsible=0;dropTarget=0;pointerEvents=0;fillColor=none;top=0;left=0;bottom=1;right=0;points=[[0,0.5],[1,0.5]];portConstraint=eastwest;" vertex="1" parent="l890fs3GRMGRWGxxvy2Y-0">
          <mxGeometry y="30" width="180" height="30" as="geometry" />
        </mxCell>
        <mxCell id="l890fs3GRMGRWGxxvy2Y-2" value="PK" style="shape=partialRectangle;connectable=0;fillColor=none;top=0;left=0;bottom=0;right=0;fontStyle=1;overflow=hidden;" vertex="1" parent="l890fs3GRMGRWGxxvy2Y-1">
          <mxGeometry width="30" height="30" as="geometry" />
        </mxCell>
        <mxCell id="l890fs3GRMGRWGxxvy2Y-3" value="id_kategoria" style="shape=partialRectangle;connectable=0;fillColor=none;top=0;left=0;bottom=0;right=0;align=left;spacingLeft=6;fontStyle=5;overflow=hidden;" vertex="1" parent="l890fs3GRMGRWGxxvy2Y-1">
          <mxGeometry x="30" width="150" height="30" as="geometry" />
        </mxCell>
        <mxCell id="l890fs3GRMGRWGxxvy2Y-4" value="" style="shape=partialRectangle;collapsible=0;dropTarget=0;pointerEvents=0;fillColor=none;top=0;left=0;bottom=0;right=0;points=[[0,0.5],[1,0.5]];portConstraint=eastwest;" vertex="1" parent="l890fs3GRMGRWGxxvy2Y-0">
          <mxGeometry y="60" width="180" height="30" as="geometry" />
        </mxCell>
        <mxCell id="l890fs3GRMGRWGxxvy2Y-5" value="" style="shape=partialRectangle;connectable=0;fillColor=none;top=0;left=0;bottom=0;right=0;editable=1;overflow=hidden;" vertex="1" parent="l890fs3GRMGRWGxxvy2Y-4">
          <mxGeometry width="30" height="30" as="geometry" />
        </mxCell>
        <mxCell id="l890fs3GRMGRWGxxvy2Y-6" value="nazwa" style="shape=partialRectangle;connectable=0;fillColor=none;top=0;left=0;bottom=0;right=0;align=left;spacingLeft=6;overflow=hidden;" vertex="1" parent="l890fs3GRMGRWGxxvy2Y-4">
          <mxGeometry x="30" width="150" height="30" as="geometry" />
        </mxCell>
        <mxCell id="meL0yJi5EwFvPr_nLxiF-0" value="" style="edgeStyle=entityRelationEdgeStyle;fontSize=12;html=1;endArrow=ERoneToMany;jumpStyle=arc;entryX=0;entryY=0.5;entryDx=0;entryDy=0;rounded=1;" edge="1" parent="3W3n_nv946zFMJwHKfL3-1" source="3W3n_nv946zFMJwHKfL3-13" target="3W3n_nv946zFMJwHKfL3-20">
          <mxGeometry width="100" height="100" relative="1" as="geometry">
            <mxPoint y="310" as="sourcePoint" />
            <mxPoint x="20" y="390" as="targetPoint" />
          </mxGeometry>
        </mxCell>
        <mxCell id="FUXd0osHethBaPNFGX-5-0" value="" style="edgeStyle=entityRelationEdgeStyle;fontSize=12;html=1;endArrow=ERmany;startArrow=ERmany;exitX=1;exitY=0.5;exitDx=0;exitDy=0;entryX=0;entryY=0.5;entryDx=0;entryDy=0;" edge="1" parent="3W3n_nv946zFMJwHKfL3-1" source="3W3n_nv946zFMJwHKfL3-20" target="3W3n_nv946zFMJwHKfL3-52">
          <mxGeometry width="100" height="100" relative="1" as="geometry">
            <mxPoint x="450" y="480" as="sourcePoint" />
            <mxPoint x="550" y="380" as="targetPoint" />
          </mxGeometry>
        </mxCell>
        <mxCell id="ohFuvmpZTrgJHFsgNJIU-0" value="" style="edgeStyle=entityRelationEdgeStyle;fontSize=12;html=1;endArrow=ERmany;startArrow=ERmany;exitX=1;exitY=0.5;exitDx=0;exitDy=0;entryX=1;entryY=0.5;entryDx=0;entryDy=0;" edge="1" parent="3W3n_nv946zFMJwHKfL3-1" source="l890fs3GRMGRWGxxvy2Y-1" target="l890fs3GRMGRWGxxvy2Y-16">
          <mxGeometry width="100" height="100" relative="1" as="geometry">
            <mxPoint x="1130" y="550" as="sourcePoint" />
            <mxPoint x="1230" y="450" as="targetPoint" />
          </mxGeometry>
        </mxCell>
      </root>
    </mxGraphModel>
  </diagram>
</mxfile>
